<svg width="1440" height="1193" viewBox="0 0 1440 1193" fill="none" xmlns="http://www.w3.org/2000/svg">
<g opacity="0.7" filter="url(#filter0_f_1_4020)">
<path d="M574.405 740.948C527.162 620.374 512.251 352.235 626.677 307.427C741.103 262.619 941.535 458.11 988.778 578.685C1036.02 699.259 981.559 833.328 867.133 878.136C752.707 922.944 621.648 861.523 574.405 740.948Z" fill="#4B4EFC"/>
</g>
<g opacity="0.5" filter="url(#filter1_f_1_4020)">
<path d="M610.843 645.473C571.898 546.077 537.635 333.637 599.798 309.295C661.961 284.953 797.01 457.926 835.955 557.322C874.9 656.719 856.079 757.029 793.916 781.371C731.753 805.714 649.789 744.87 610.843 645.473Z" fill="#4B4EFC"/>
</g>
<defs>
<filter id="filter0_f_1_4020" x="239.086" y="0.878296" width="1066.72" height="1191.91" filterUnits="userSpaceOnUse" color-interpolation-filters="sRGB">
<feFlood flood-opacity="0" result="BackgroundImageFix"/>
<feBlend mode="normal" in="SourceGraphic" in2="BackgroundImageFix" result="shape"/>
<feGaussianBlur stdDeviation="150" result="effect1_foregroundBlur_1_4020"/>
</filter>
<filter id="filter1_f_1_4020" x="265.615" y="6.97485" width="890.623" height="1079.76" filterUnits="userSpaceOnUse" color-interpolation-filters="sRGB">
<feFlood flood-opacity="0" result="BackgroundImageFix"/>
<feBlend mode="normal" in="SourceGraphic" in2="BackgroundImageFix" result="shape"/>
<feGaussianBlur stdDeviation="150" result="effect1_foregroundBlur_1_4020"/>
</filter>
</defs>
</svg>
