<svg width="1736" height="1503" viewBox="0 0 1736 1503" fill="none" xmlns="http://www.w3.org/2000/svg">
<g opacity="0.7" filter="url(#filter0_f_1_4023)">
<path d="M574.405 740.948C527.162 620.374 512.251 352.235 626.677 307.427C741.103 262.619 941.535 458.111 988.778 578.685C1036.02 699.259 981.559 833.328 867.133 878.136C752.707 922.944 621.648 861.523 574.405 740.948Z" fill="#4B4EFC"/>
</g>
<g opacity="0.5" filter="url(#filter1_f_1_4023)">
<path d="M1189.9 1060.83C1150.96 961.438 1116.7 748.998 1178.86 724.656C1241.02 700.314 1376.07 873.287 1415.02 972.683C1453.96 1072.08 1435.14 1172.39 1372.98 1196.73C1310.81 1221.07 1228.85 1160.23 1189.9 1060.83Z" fill="#4B4EFC"/>
</g>
<defs>
<filter id="filter0_f_1_4023" x="239.086" y="0.878418" width="1066.72" height="1191.91" filterUnits="userSpaceOnUse" color-interpolation-filters="sRGB">
<feFlood flood-opacity="0" result="BackgroundImageFix"/>
<feBlend mode="normal" in="SourceGraphic" in2="BackgroundImageFix" result="shape"/>
<feGaussianBlur stdDeviation="150" result="effect1_foregroundBlur_1_4023"/>
</filter>
<filter id="filter1_f_1_4023" x="844.676" y="422.336" width="890.623" height="1079.76" filterUnits="userSpaceOnUse" color-interpolation-filters="sRGB">
<feFlood flood-opacity="0" result="BackgroundImageFix"/>
<feBlend mode="normal" in="SourceGraphic" in2="BackgroundImageFix" result="shape"/>
<feGaussianBlur stdDeviation="150" result="effect1_foregroundBlur_1_4023"/>
</filter>
</defs>
</svg>
