<svg width="1636" height="1502" viewBox="0 0 1636 1502" fill="none" xmlns="http://www.w3.org/2000/svg">
<g opacity="0.7" filter="url(#filter0_f_1_4017)">
<path d="M336.313 740.484C289.07 619.909 274.158 351.77 388.584 306.963C503.01 262.155 703.443 457.646 750.686 578.221C797.929 698.795 743.466 832.864 629.041 877.672C514.615 922.479 383.556 861.058 336.313 740.484Z" fill="#4B4EFC"/>
</g>
<g opacity="0.5" filter="url(#filter1_f_1_4017)">
<path d="M1054.89 1060.37C1015.95 960.973 981.687 748.534 1043.85 724.192C1106.01 699.849 1241.06 872.822 1280.01 972.219C1318.95 1071.62 1300.13 1171.93 1237.97 1196.27C1175.8 1220.61 1093.84 1159.77 1054.89 1060.37Z" fill="#4B4EFC"/>
</g>
<defs>
<filter id="filter0_f_1_4017" x="0.993408" y="0.414062" width="1066.72" height="1191.91" filterUnits="userSpaceOnUse" color-interpolation-filters="sRGB">
<feFlood flood-opacity="0" result="BackgroundImageFix"/>
<feBlend mode="normal" in="SourceGraphic" in2="BackgroundImageFix" result="shape"/>
<feGaussianBlur stdDeviation="150" result="effect1_foregroundBlur_1_4017"/>
</filter>
<filter id="filter1_f_1_4017" x="709.666" y="421.871" width="890.623" height="1079.76" filterUnits="userSpaceOnUse" color-interpolation-filters="sRGB">
<feFlood flood-opacity="0" result="BackgroundImageFix"/>
<feBlend mode="normal" in="SourceGraphic" in2="BackgroundImageFix" result="shape"/>
<feGaussianBlur stdDeviation="150" result="effect1_foregroundBlur_1_4017"/>
</filter>
</defs>
</svg>
