<svg width="21" height="20" viewBox="0 0 21 20" fill="none" xmlns="http://www.w3.org/2000/svg">
<path d="M10.4492 0.794434C5.11782 0.794434 0.794312 5.13484 0.794312 10.4891C0.794312 14.7716 3.56078 18.4047 7.39907 19.6878C7.88188 19.7771 8.0581 19.4777 8.0581 19.2207C8.0581 18.9901 8.04965 18.3806 8.04482 17.5719C5.35922 18.1573 4.79193 16.2719 4.79193 16.2719C4.35378 15.1518 3.7201 14.8537 3.7201 14.8537C2.84261 14.2526 3.78528 14.2647 3.78528 14.2647C4.75451 14.3335 5.26387 15.2641 5.26387 15.2641C6.12568 16.7451 7.5246 16.3178 8.075 16.0691C8.1619 15.4427 8.41175 15.0154 8.68816 14.7728C6.54451 14.5278 4.28981 13.6962 4.28981 9.98219C4.28981 8.92365 4.6664 8.05822 5.28439 7.37988C5.18421 7.13486 4.85349 6.14873 5.37854 4.81498C5.37854 4.81498 6.18965 4.55427 8.03396 5.80835C8.80403 5.59351 9.62963 5.48608 10.4516 5.48246C11.2712 5.48729 12.098 5.59351 12.8692 5.80956C14.7123 4.55548 15.5222 4.81619 15.5222 4.81619C16.0485 6.15114 15.7178 7.13607 15.6188 7.38109C16.238 8.05943 16.611 8.92485 16.611 9.9834C16.611 13.707 14.3539 14.5266 12.203 14.7668C12.5494 15.0661 12.8584 15.6576 12.8584 16.5616C12.8584 17.8579 12.8463 18.9032 12.8463 19.2207C12.8463 19.4802 13.0201 19.7819 13.5102 19.6866C17.3424 18.4023 20.1065 14.7704 20.1065 10.4891C20.1065 5.13484 15.783 0.794434 10.4492 0.794434Z" fill="white"/>
</svg>
