<svg width="21" height="21" viewBox="0 0 21 21" fill="none" xmlns="http://www.w3.org/2000/svg">
<path d="M20.1065 20.0991V13.026C20.1065 9.54983 19.3581 6.89441 15.3026 6.89441C13.3472 6.89441 12.0436 7.95658 11.5125 8.97047H11.4643V7.20823H7.62598V20.0991H11.6333V13.7019C11.6333 12.0121 11.9471 10.3947 14.0231 10.3947C16.075 10.3947 16.0992 12.3018 16.0992 13.7985V20.075H20.1065V20.0991Z" fill="white"/>
<path d="M1.10809 7.20825H5.11537V20.0991H1.10809V7.20825Z" fill="white"/>
<path d="M3.11177 0.786987C1.83234 0.786987 0.794312 1.82502 0.794312 3.10445C0.794312 4.38388 1.83234 5.44605 3.11177 5.44605C4.3912 5.44605 5.42923 4.38388 5.42923 3.10445C5.42923 1.82502 4.3912 0.786987 3.11177 0.786987V0.786987Z" fill="white"/>
</svg>
