<svg width="21" height="19" viewBox="0 0 21 19" fill="none" xmlns="http://www.w3.org/2000/svg">
<path d="M20.1065 2.90238C19.3883 3.26241 18.6231 3.50105 17.8252 3.61693C18.646 3.05687 19.2724 2.17679 19.5669 1.116C18.8017 1.63743 17.9568 2.00574 17.0564 2.21128C16.3297 1.32706 15.2941 0.779419 14.1644 0.779419C11.9724 0.779419 10.2078 2.81271 10.2078 5.30536C10.2078 5.66402 10.2343 6.00888 10.2995 6.33718C7.008 6.15372 4.09548 4.35079 2.13892 1.60432C1.79734 2.28163 1.59697 3.05687 1.59697 3.89144C1.59697 5.45848 2.30307 6.84758 3.35559 7.65179C2.71949 7.638 2.09547 7.42694 1.5668 7.0945C1.5668 7.10829 1.5668 7.12622 1.5668 7.14416C1.5668 9.34298 2.93917 11.1694 4.73882 11.5901C4.41655 11.6908 4.06531 11.7391 3.70079 11.7391C3.44732 11.7391 3.19143 11.7225 2.95124 11.6618C3.46422 13.4537 4.91987 14.7711 6.65072 14.8138C5.3037 16.0181 3.59337 16.7437 1.74181 16.7437C1.41713 16.7437 1.10572 16.7271 0.794312 16.6816C2.5481 17.9741 4.62657 18.7121 6.86799 18.7121C14.1535 18.7121 18.1366 11.8149 18.1366 5.83645C18.1366 5.63643 18.1306 5.44331 18.1221 5.25156C18.9079 4.61426 19.5681 3.81833 20.1065 2.90238Z" fill="white"/>
</svg>
